<?xml version="1.0" encoding="UTF-8" ?>
<!DOCTYPE svg PUBLIC "-//W3C//DTD SVG 1.1//EN" "http://www.w3.org/Graphics/SVG/1.1/DTD/svg11.dtd">
<svg width="128pt" height="128pt" viewBox="0 0 128 128" version="1.1" xmlns="http://www.w3.org/2000/svg">
<g id="#0000002e">
<path fill="#000000" opacity="0.18" d=" M 0.00 0.00 L 116.12 0.00 C 118.11 2.92 118.98 6.43 118.87 9.95 C 118.70 33.30 118.84 56.65 118.78 80.00 C 118.66 85.59 118.68 91.20 119.24 96.77 C 122.16 97.01 125.08 97.24 128.00 97.46 L 128.00 100.35 C 124.64 100.13 121.07 100.50 117.91 99.13 C 115.53 97.24 116.00 93.75 115.74 91.05 C 115.91 64.34 115.70 37.64 115.88 10.93 C 115.81 8.88 115.82 6.76 115.17 4.79 C 113.82 2.88 111.09 3.52 109.08 3.24 C 80.06 3.42 51.03 3.25 22.01 3.29 C 15.57 3.24 9.00 2.85 2.75 4.72 C 2.06 4.88 0.69 5.22 0.00 5.39 L 0.00 0.00 Z" />
</g>
<g id="#0000009c">
<path fill="#000000" opacity="0.61" d=" M 2.75 4.72 C 9.00 2.85 15.57 3.24 22.01 3.29 C 51.03 3.25 80.06 3.42 109.08 3.24 C 111.09 3.52 113.82 2.88 115.17 4.79 C 115.82 6.76 115.81 8.88 115.88 10.93 C 115.70 37.64 115.91 64.34 115.74 91.05 C 116.00 93.75 115.53 97.24 117.91 99.13 C 121.07 100.50 124.64 100.13 128.00 100.35 L 128.00 102.09 C 122.74 102.09 117.15 103.13 112.20 100.84 C 112.42 82.99 112.54 65.13 112.09 47.29 C 112.59 36.19 112.21 25.09 112.33 13.99 C 112.34 11.79 112.36 9.58 112.23 7.38 C 112.09 6.90 111.82 5.93 111.68 5.44 C 109.48 5.10 107.27 4.90 105.05 4.83 C 70.95 4.80 36.85 4.93 2.75 4.72 Z" />
</g>
<g id="#51576cfe">
<path fill="#51576c" opacity="1.00" d=" M 0.00 5.39 C 0.69 5.22 2.06 4.88 2.75 4.72 C 36.85 4.93 70.95 4.80 105.05 4.83 C 107.27 4.90 109.48 5.10 111.68 5.44 C 111.82 5.93 112.09 6.90 112.23 7.38 C 104.90 8.89 97.41 8.22 90.00 8.29 C 72.33 8.31 54.66 8.29 37.00 8.31 C 30.87 8.33 24.66 7.78 18.61 9.09 C 18.35 9.14 17.83 9.24 17.57 9.29 C 14.23 7.69 10.51 7.14 6.87 7.98 C 5.46 8.22 4.05 8.51 2.64 8.81 C 1.98 8.94 0.66 9.22 0.00 9.36 L 0.00 5.39 Z" />
</g>
<g id="#232430ff">
<path fill="#232430" opacity="1.00" d=" M 90.00 8.29 C 97.41 8.22 104.90 8.89 112.23 7.38 C 112.36 9.58 112.34 11.79 112.33 13.99 C 86.88 14.00 61.44 14.05 36.00 13.98 C 30.13 14.05 23.63 12.93 18.48 16.48 L 17.83 17.09 C 17.95 14.42 18.23 11.75 18.61 9.09 C 24.66 7.78 30.87 8.33 37.00 8.31 C 54.66 8.29 72.33 8.31 90.00 8.29 Z" />
</g>
<g id="#2f4f5dff">
<path fill="#2f4f5d" opacity="1.00" d=" M 2.64 8.81 C 4.05 8.51 5.46 8.22 6.87 7.98 C 7.29 8.95 7.72 9.92 8.17 10.87 C 6.24 13.16 4.28 15.42 2.56 17.86 C 2.73 14.85 2.67 11.82 2.64 8.81 Z" />
</g>
<g id="#3c7b95ff">
<path fill="#3c7b95" opacity="1.00" d=" M 6.87 7.98 C 10.51 7.14 14.23 7.69 17.57 9.29 C 15.97 11.37 14.33 13.43 12.67 15.46 C 11.14 13.96 9.58 12.49 8.17 10.87 C 7.72 9.92 7.29 8.95 6.87 7.98 Z" />
</g>
<g id="#2c292cf3">
<path fill="#2c292c" opacity="0.95" d=" M 0.00 9.36 C 0.66 9.22 1.98 8.94 2.64 8.81 C 2.67 11.82 2.73 14.85 2.56 17.86 C 2.39 19.50 2.23 21.13 2.09 22.77 C 7.25 22.92 12.42 22.93 17.56 22.52 C 17.59 22.08 17.64 21.21 17.66 20.77 C 17.72 19.54 17.77 18.32 17.83 17.09 L 18.48 16.48 C 18.67 19.08 18.85 21.69 19.02 24.29 C 13.20 24.26 7.37 24.21 1.55 24.44 C 1.43 43.62 1.53 62.82 1.28 82.00 C 0.72 88.62 0.43 95.26 0.70 101.91 C 2.95 101.94 5.20 101.98 7.45 101.95 L 6.53 102.09 C 4.36 102.41 2.18 102.67 0.00 102.87 L 0.00 9.36 Z" />
</g>
<g id="#e89709ff">
<path fill="#e89709" opacity="1.00" d=" M 17.57 9.29 C 17.83 9.24 18.35 9.14 18.61 9.09 C 18.23 11.75 17.95 14.42 17.83 17.09 C 17.77 18.32 17.72 19.54 17.66 20.77 L 17.09 21.14 C 17.49 17.20 17.58 13.25 17.57 9.29 Z" />
<path fill="#e89709" opacity="1.00" d=" M 5.67 90.56 C 7.98 90.03 11.03 89.15 12.34 91.90 C 12.23 93.55 12.02 95.20 11.81 96.84 C 9.73 96.69 7.64 96.49 5.56 96.28 C 5.58 94.37 5.62 92.47 5.67 90.56 Z" />
</g>
<g id="#193149ff">
<path fill="#193149" opacity="1.00" d=" M 12.67 15.46 C 14.33 13.43 15.97 11.37 17.57 9.29 C 17.58 13.25 17.49 17.20 17.09 21.14 C 16.58 21.43 15.57 22.02 15.07 22.31 C 14.33 21.63 13.60 20.95 12.86 20.27 C 13.78 19.66 14.70 19.05 15.62 18.44 C 14.63 17.45 13.66 16.45 12.67 15.46 Z" />
</g>
<g id="#ba9a57ff">
<path fill="#ba9a57" opacity="1.00" d=" M 2.56 17.86 C 4.28 15.42 6.24 13.16 8.17 10.87 C 9.58 12.49 11.14 13.96 12.67 15.46 C 13.66 16.45 14.63 17.45 15.62 18.44 C 14.70 19.05 13.78 19.66 12.86 20.27 C 13.60 20.95 14.33 21.63 15.07 22.31 C 15.57 22.02 16.58 21.43 17.09 21.14 L 17.66 20.77 C 17.64 21.21 17.59 22.08 17.56 22.52 C 12.42 22.93 7.25 22.92 2.09 22.77 C 2.23 21.13 2.39 19.50 2.56 17.86 M 2.97 22.14 C 5.64 22.18 8.32 22.15 10.99 22.05 C 10.25 19.78 9.61 17.36 7.97 15.54 C 4.70 15.65 4.24 19.82 2.97 22.14 Z" />
<path fill="#ba9a57" opacity="1.00" d=" M 1.55 24.44 C 7.37 24.21 13.20 24.26 19.02 24.29 C 32.35 24.33 45.67 24.40 59.00 24.50 C 75.73 24.45 92.46 24.21 109.18 24.82 C 91.62 26.42 73.95 24.91 56.36 25.71 C 56.35 26.16 56.33 27.08 56.32 27.54 C 53.72 26.34 50.93 25.58 48.06 25.66 C 33.02 25.65 17.98 25.31 2.95 25.60 C 2.60 25.31 1.90 24.73 1.55 24.44 Z" />
</g>
<g id="#191923ff">
<path fill="#191923" opacity="1.00" d=" M 18.48 16.48 C 23.63 12.93 30.13 14.05 36.00 13.98 C 61.44 14.05 86.88 14.00 112.33 13.99 C 112.21 25.09 112.59 36.19 112.09 47.29 C 110.29 39.92 109.97 32.33 109.94 24.78 L 109.18 24.82 C 92.46 24.21 75.73 24.45 59.00 24.50 C 45.67 24.40 32.35 24.33 19.02 24.29 C 18.85 21.69 18.67 19.08 18.48 16.48 Z" />
</g>
<g id="#eef0e8ff">
<path fill="#eef0e8" opacity="1.00" d=" M 2.97 22.14 C 4.24 19.82 4.70 15.65 7.97 15.54 C 9.61 17.36 10.25 19.78 10.99 22.05 C 8.32 22.15 5.64 22.18 2.97 22.14 Z" />
</g>
<g id="#272934ff">
<path fill="#272934" opacity="1.00" d=" M 109.18 24.82 L 109.94 24.78 C 109.97 32.33 110.29 39.92 112.09 47.29 C 112.54 65.13 112.42 82.99 112.20 100.84 C 109.92 99.76 107.67 98.36 105.07 98.26 C 93.96 97.71 82.76 98.89 71.72 97.17 C 79.01 96.23 86.38 96.48 93.71 96.65 C 93.71 96.08 93.72 94.93 93.73 94.36 C 84.73 94.28 75.74 94.46 66.75 94.35 C 67.82 95.32 68.90 96.28 69.98 97.25 C 68.43 97.32 66.87 97.39 65.32 97.45 C 64.34 95.16 63.44 90.01 59.98 91.95 C 59.38 93.76 59.51 95.70 59.42 97.58 C 58.39 98.40 57.35 99.21 56.31 100.01 L 56.33 98.91 C 56.31 75.12 56.33 51.33 56.32 27.54 C 56.33 27.08 56.35 26.16 56.36 25.71 C 73.95 24.91 91.62 26.42 109.18 24.82 M 59.51 33.67 C 61.23 32.99 64.83 33.51 64.67 30.86 C 65.09 28.94 63.18 26.31 61.19 27.85 C 58.86 28.89 59.70 31.67 59.51 33.67 M 67.22 28.97 C 67.17 29.71 67.07 31.19 67.02 31.93 C 68.87 32.05 70.72 32.15 72.58 32.22 C 72.53 29.26 69.29 29.58 67.22 28.97 M 72.44 29.81 C 72.66 30.31 73.09 31.30 73.31 31.80 C 79.59 32.85 86.05 32.25 92.40 32.03 C 92.20 31.54 91.81 30.57 91.61 30.08 C 85.29 29.14 78.82 29.86 72.44 29.81 M 59.19 38.36 C 59.34 39.45 59.63 41.64 59.78 42.74 C 61.59 41.94 65.32 42.12 64.69 39.20 C 64.41 36.22 60.91 37.57 59.19 38.36 M 67.24 38.40 C 67.25 38.97 67.27 40.11 67.28 40.67 C 73.97 40.50 80.67 41.21 87.34 40.53 C 86.92 40.17 86.08 39.44 85.66 39.08 C 79.58 38.01 73.37 38.80 67.24 38.40 M 59.55 46.55 C 59.56 48.22 59.60 49.89 59.67 51.55 C 61.35 51.06 63.03 50.54 64.71 50.04 C 64.67 49.40 64.60 48.13 64.56 47.49 C 62.89 47.19 61.22 46.86 59.55 46.55 M 67.25 47.35 C 67.26 47.92 67.28 49.06 67.28 49.63 C 72.65 49.33 78.13 50.37 83.40 48.96 C 78.59 45.98 72.59 48.16 67.25 47.35 M 59.37 54.31 C 59.38 56.35 59.39 58.38 59.39 60.41 C 62.76 60.40 66.58 58.30 65.21 54.41 C 63.26 54.37 61.32 54.34 59.37 54.31 M 67.18 56.26 C 67.22 56.85 67.29 58.02 67.32 58.60 C 74.66 58.31 82.02 59.12 89.35 58.44 C 89.47 57.93 89.72 56.91 89.84 56.40 C 82.29 56.34 74.73 56.73 67.18 56.26 M 60.10 63.33 C 60.59 65.11 61.10 66.89 61.58 68.67 C 62.57 68.73 63.57 68.78 64.57 68.84 C 64.74 66.99 65.04 65.16 65.25 63.31 C 63.53 63.32 61.82 63.33 60.10 63.33 M 66.85 64.66 C 66.21 68.40 70.35 67.13 72.62 67.19 C 71.15 65.46 69.03 64.86 66.85 64.66 M 72.56 65.28 C 72.79 65.71 73.23 66.57 73.46 67.00 C 78.05 68.00 82.85 67.46 87.50 67.10 C 87.19 66.75 86.55 66.04 86.24 65.69 C 81.75 64.95 77.11 65.48 72.56 65.28 M 87.45 64.73 C 87.58 65.33 87.86 66.52 87.99 67.12 C 91.54 67.90 95.22 67.58 98.77 66.97 C 95.46 64.71 91.24 65.18 87.45 64.73 M 59.35 79.86 C 62.73 80.59 65.19 76.53 62.08 74.42 C 58.41 73.51 59.69 77.67 59.35 79.86 M 67.28 76.37 C 67.27 76.94 67.26 78.08 67.25 78.65 C 73.47 78.69 79.69 78.70 85.90 78.74 C 85.89 78.14 85.86 76.94 85.84 76.34 C 79.65 76.35 73.47 76.39 67.28 76.37 M 58.72 83.07 C 58.95 84.20 59.21 85.32 59.50 86.44 C 61.02 87.39 62.68 88.08 64.30 88.83 C 64.62 87.41 65.93 85.83 64.34 84.71 C 63.09 82.90 60.59 83.48 58.72 83.07 M 67.25 85.36 C 67.25 85.93 67.26 87.07 67.26 87.64 C 76.93 87.79 86.60 87.33 96.27 87.55 C 95.35 86.56 94.58 85.06 92.98 85.38 C 84.40 85.40 75.83 85.38 67.25 85.36 Z" />
</g>
<g id="#b3b3b3ff">
<path fill="#b3b3b3" opacity="1.00" d=" M 1.28 82.00 C 1.53 62.82 1.43 43.62 1.55 24.44 C 1.90 24.73 2.60 25.31 2.95 25.60 C 3.58 31.47 2.51 37.36 2.99 43.24 C 3.00 43.65 3.03 44.47 3.04 44.88 C 2.44 52.65 2.04 60.48 3.28 68.23 C 3.22 68.90 3.10 70.24 3.04 70.92 C 2.18 80.11 2.36 89.38 2.82 98.59 C 3.74 97.82 4.66 97.06 5.56 96.28 C 7.64 96.49 9.73 96.69 11.81 96.84 C 12.02 95.20 12.23 93.55 12.34 91.90 C 12.77 93.91 13.07 95.95 13.38 97.99 C 27.67 99.08 42.07 97.36 56.33 98.91 L 56.31 100.01 C 55.32 100.80 54.24 101.61 52.90 101.52 C 37.76 101.92 22.56 100.97 7.45 101.95 C 5.20 101.98 2.95 101.94 0.70 101.91 C 0.43 95.26 0.72 88.62 1.28 82.00 Z" />
</g>
<g id="#fefefeff">
<path fill="#fefefe" opacity="1.00" d=" M 2.95 25.60 C 17.98 25.31 33.02 25.65 48.06 25.66 C 50.93 25.58 53.72 26.34 56.32 27.54 C 56.33 51.33 56.31 75.12 56.33 98.91 C 42.07 97.36 27.67 99.08 13.38 97.99 C 13.07 95.95 12.77 93.91 12.34 91.90 C 11.03 89.15 7.98 90.03 5.67 90.56 C 5.62 92.47 5.58 94.37 5.56 96.28 C 4.66 97.06 3.74 97.82 2.82 98.59 C 2.36 89.38 2.18 80.11 3.04 70.92 C 5.89 72.70 9.22 73.05 12.51 72.83 C 13.32 71.61 14.14 70.38 14.95 69.16 C 15.15 70.68 15.33 72.19 15.52 73.70 C 17.44 73.64 19.37 73.57 21.29 73.51 C 21.44 72.32 21.59 71.12 21.74 69.93 C 29.80 69.10 37.89 70.04 45.96 69.79 C 45.95 69.14 45.94 67.85 45.93 67.21 C 34.28 67.28 22.64 67.21 10.99 67.24 C 8.74 67.32 6.48 67.51 4.27 67.97 L 3.28 68.23 C 2.04 60.48 2.44 52.65 3.04 44.88 C 5.23 47.37 8.31 49.01 11.69 48.54 C 12.07 48.18 12.83 47.47 13.21 47.12 C 18.68 47.63 24.18 47.03 29.66 47.39 C 34.01 47.51 38.98 48.66 42.60 45.50 C 37.28 44.74 31.91 44.89 26.56 44.71 C 26.10 43.57 25.64 42.44 25.18 41.30 C 23.08 41.26 20.97 41.21 18.88 41.05 C 16.59 40.85 14.30 40.56 12.01 40.45 C 9.25 40.13 6.61 40.90 4.34 42.45 C 4.00 42.65 3.33 43.05 2.99 43.24 C 2.51 37.36 3.58 31.47 2.95 25.60 M 5.04 27.98 C 4.78 30.20 3.69 32.75 4.95 34.84 C 6.04 37.53 9.44 36.32 11.63 36.24 C 12.01 34.43 12.36 32.61 12.60 30.77 C 12.12 29.66 11.64 28.54 11.18 27.41 C 9.13 27.51 7.08 27.69 5.04 27.98 M 12.93 28.43 C 12.99 30.61 13.09 32.78 13.20 34.96 C 16.87 35.90 20.68 35.99 24.44 35.71 C 28.05 35.42 31.87 36.42 35.23 34.69 C 33.04 33.39 30.83 32.10 28.86 30.47 L 29.65 29.93 C 24.54 29.11 19.33 29.32 14.20 29.69 C 13.88 29.37 13.25 28.74 12.93 28.43 M 5.52 54.10 C 5.50 56.85 5.36 59.59 5.28 62.34 C 6.77 61.64 8.21 60.85 9.67 60.08 C 10.62 60.42 11.56 60.76 12.51 61.11 C 12.35 59.27 12.92 57.10 11.45 55.64 C 10.16 53.68 7.49 54.51 5.52 54.10 M 13.59 58.83 C 18.92 60.60 24.54 59.23 30.02 59.60 C 31.89 59.99 33.26 59.00 34.27 57.53 C 28.83 57.29 23.37 57.30 17.92 57.31 C 16.29 57.14 14.88 57.96 13.59 58.83 M 4.03 78.04 C 4.36 80.79 4.35 83.72 5.74 86.20 C 7.72 86.83 9.83 86.64 11.87 86.74 C 11.70 86.27 11.36 85.35 11.19 84.89 C 9.87 84.53 8.56 84.15 7.25 83.76 C 9.01 83.39 10.77 83.01 12.53 82.66 C 11.49 80.89 10.57 79.05 9.34 77.40 C 7.55 77.29 5.79 77.74 4.03 78.04 M 14.92 78.94 C 14.77 80.86 14.58 82.79 14.42 84.72 C 19.88 85.80 25.47 85.89 30.99 85.38 C 32.07 83.94 32.82 82.02 34.61 81.33 C 36.66 80.30 38.95 81.22 41.06 81.52 C 41.34 80.78 41.61 80.04 41.89 79.30 C 32.91 78.75 23.91 78.93 14.92 78.94 M 14.30 92.86 C 14.57 93.31 15.10 94.22 15.36 94.67 C 22.08 96.11 29.13 95.27 35.92 94.52 C 35.66 93.86 35.39 93.21 35.13 92.55 C 28.19 92.94 21.23 92.30 14.30 92.86 Z" />
</g>
<g id="#4288b8ff">
<path fill="#4288b8" opacity="1.00" d=" M 5.04 27.98 C 7.08 27.69 9.13 27.51 11.18 27.41 C 11.64 28.54 12.12 29.66 12.60 30.77 C 11.18 31.12 9.75 31.46 8.33 31.81 C 7.29 30.49 6.17 29.23 5.04 27.98 Z" />
</g>
<g id="#c2dbd9ff">
<path fill="#c2dbd9" opacity="1.00" d=" M 59.51 33.67 C 59.70 31.67 58.86 28.89 61.19 27.85 C 63.18 26.31 65.09 28.94 64.67 30.86 C 64.83 33.51 61.23 32.99 59.51 33.67 Z" />
</g>
<g id="#c95f28ff">
<path fill="#c95f28" opacity="1.00" d=" M 5.04 27.98 C 6.17 29.23 7.29 30.49 8.33 31.81 C 9.47 33.26 10.56 34.74 11.63 36.24 C 9.44 36.32 6.04 37.53 4.95 34.84 C 3.69 32.75 4.78 30.20 5.04 27.98 Z" />
</g>
<g id="#e0e1e1ff">
<path fill="#e0e1e1" opacity="1.00" d=" M 12.93 28.43 C 13.25 28.74 13.88 29.37 14.20 29.69 C 14.63 30.14 15.50 31.04 15.94 31.49 C 20.22 31.49 24.91 32.60 28.86 30.47 C 30.83 32.10 33.04 33.39 35.23 34.69 C 31.87 36.42 28.05 35.42 24.44 35.71 C 20.68 35.99 16.87 35.90 13.20 34.96 C 13.09 32.78 12.99 30.61 12.93 28.43 Z" />
</g>
<g id="#939496ff">
<path fill="#939496" opacity="1.00" d=" M 14.20 29.69 C 19.33 29.32 24.54 29.11 29.65 29.93 L 28.86 30.47 C 24.91 32.60 20.22 31.49 15.94 31.49 C 15.50 31.04 14.63 30.14 14.20 29.69 Z" />
<path fill="#939496" opacity="1.00" d=" M 72.56 65.28 C 77.11 65.48 81.75 64.95 86.24 65.69 C 86.55 66.04 87.19 66.75 87.50 67.10 C 82.85 67.46 78.05 68.00 73.46 67.00 C 73.23 66.57 72.79 65.71 72.56 65.28 Z" />
</g>
<g id="#707279ff">
<path fill="#707279" opacity="1.00" d=" M 67.22 28.97 C 69.29 29.58 72.53 29.26 72.58 32.22 C 70.72 32.15 68.87 32.05 67.02 31.93 C 67.07 31.19 67.17 29.71 67.22 28.97 Z" />
</g>
<g id="#7c7f84ff">
<path fill="#7c7f84" opacity="1.00" d=" M 72.44 29.81 C 78.82 29.86 85.29 29.14 91.61 30.08 C 91.81 30.57 92.20 31.54 92.40 32.03 C 86.05 32.25 79.59 32.85 73.31 31.80 C 73.09 31.30 72.66 30.31 72.44 29.81 Z" />
</g>
<g id="#3c6729ff">
<path fill="#3c6729" opacity="1.00" d=" M 8.33 31.81 C 9.75 31.46 11.18 31.12 12.60 30.77 C 12.36 32.61 12.01 34.43 11.63 36.24 C 10.56 34.74 9.47 33.26 8.33 31.81 Z" />
<path fill="#3c6729" opacity="1.00" d=" M 18.97 113.94 C 30.99 114.26 43.01 114.15 55.03 113.95 C 55.36 115.72 55.66 117.49 55.88 119.28 C 55.68 121.92 54.83 124.46 54.09 126.99 C 42.69 127.00 31.30 127.02 19.91 126.98 C 19.16 124.44 18.32 121.89 18.14 119.23 C 18.35 117.46 18.65 115.69 18.97 113.94 M 20.01 116.97 C 20.18 119.89 20.56 122.79 21.18 125.66 C 31.73 125.70 42.28 125.70 52.82 125.66 C 53.44 122.79 53.82 119.88 54.00 116.96 C 50.73 117.86 47.46 118.92 44.04 119.04 C 35.99 119.08 27.70 119.91 20.01 116.97 Z" />
</g>
<g id="#dddfb2ff">
<path fill="#dddfb2" opacity="1.00" d=" M 59.19 38.36 C 60.91 37.57 64.41 36.22 64.69 39.20 C 65.32 42.12 61.59 41.94 59.78 42.74 C 59.63 41.64 59.34 39.45 59.19 38.36 Z" />
</g>
<g id="#888a90ff">
<path fill="#888a90" opacity="1.00" d=" M 67.24 38.40 C 73.37 38.80 79.58 38.01 85.66 39.08 C 86.08 39.44 86.92 40.17 87.34 40.53 C 80.67 41.21 73.97 40.50 67.28 40.67 C 67.27 40.11 67.25 38.97 67.24 38.40 Z" />
</g>
<g id="#dfdfdfff">
<path fill="#dfdfdf" opacity="1.00" d=" M 12.01 40.45 C 14.30 40.56 16.59 40.85 18.88 41.05 C 18.70 41.61 18.36 42.73 18.18 43.30 C 20.30 43.45 22.42 43.59 24.54 43.74 C 24.70 43.13 25.02 41.91 25.18 41.30 C 25.64 42.44 26.10 43.57 26.56 44.71 C 31.91 44.89 37.28 44.74 42.60 45.50 C 38.98 48.66 34.01 47.51 29.66 47.39 C 24.18 47.03 18.68 47.63 13.21 47.12 C 13.00 44.86 12.57 42.64 12.01 40.45 Z" />
</g>
<g id="#3a528bff">
<path fill="#3a528b" opacity="1.00" d=" M 4.34 42.45 C 6.61 40.90 9.25 40.13 12.01 40.45 C 12.57 42.64 13.00 44.86 13.21 47.12 C 12.83 47.47 12.07 48.18 11.69 48.54 C 10.95 46.79 10.24 45.02 9.53 43.26 C 7.80 42.97 6.08 42.65 4.34 42.45 Z" />
</g>
<g id="#92938fff">
<path fill="#92938f" opacity="1.00" d=" M 18.88 41.05 C 20.97 41.21 23.08 41.26 25.18 41.30 C 25.02 41.91 24.70 43.13 24.54 43.74 C 22.42 43.59 20.30 43.45 18.18 43.30 C 18.36 42.73 18.70 41.61 18.88 41.05 Z" />
</g>
<g id="#d3be99ff">
<path fill="#d3be99" opacity="1.00" d=" M 2.99 43.24 C 3.33 43.05 4.00 42.65 4.34 42.45 C 6.08 42.65 7.80 42.97 9.53 43.26 C 10.24 45.02 10.95 46.79 11.69 48.54 C 8.31 49.01 5.23 47.37 3.04 44.88 C 3.03 44.47 3.00 43.65 2.99 43.24 Z" />
</g>
<g id="#dfd6beff">
<path fill="#dfd6be" opacity="1.00" d=" M 59.55 46.55 C 61.22 46.86 62.89 47.19 64.56 47.49 C 64.60 48.13 64.67 49.40 64.71 50.04 C 63.03 50.54 61.35 51.06 59.67 51.55 C 59.60 49.89 59.56 48.22 59.55 46.55 Z" />
</g>
<g id="#8b8e92ff">
<path fill="#8b8e92" opacity="1.00" d=" M 67.25 47.35 C 72.59 48.16 78.59 45.98 83.40 48.96 C 78.13 50.37 72.65 49.33 67.28 49.63 C 67.28 49.06 67.26 47.92 67.25 47.35 Z" />
</g>
<g id="#aa5857ff">
<path fill="#aa5857" opacity="1.00" d=" M 5.52 54.10 C 7.49 54.51 10.16 53.68 11.45 55.64 C 12.92 57.10 12.35 59.27 12.51 61.11 C 11.56 60.76 10.62 60.42 9.67 60.08 C 8.21 60.85 6.77 61.64 5.28 62.34 C 5.36 59.59 5.50 56.85 5.52 54.10 Z" />
</g>
<g id="#8ab1e3ff">
<path fill="#8ab1e3" opacity="1.00" d=" M 59.37 54.31 C 61.32 54.34 63.26 54.37 65.21 54.41 C 66.58 58.30 62.76 60.40 59.39 60.41 C 59.39 58.38 59.38 56.35 59.37 54.31 Z" />
</g>
<g id="#8c8d93ff">
<path fill="#8c8d93" opacity="1.00" d=" M 67.18 56.26 C 74.73 56.73 82.29 56.34 89.84 56.40 C 89.72 56.91 89.47 57.93 89.35 58.44 C 82.02 59.12 74.66 58.31 67.32 58.60 C 67.29 58.02 67.22 56.85 67.18 56.26 Z" />
</g>
<g id="#b4b2b4ff">
<path fill="#b4b2b4" opacity="1.00" d=" M 13.59 58.83 C 14.88 57.96 16.29 57.14 17.92 57.31 C 23.37 57.30 28.83 57.29 34.27 57.53 C 33.26 59.00 31.89 59.99 30.02 59.60 C 24.54 59.23 18.92 60.60 13.59 58.83 Z" />
</g>
<g id="#85b8e3ff">
<path fill="#85b8e3" opacity="1.00" d=" M 60.10 63.33 C 61.82 63.33 63.53 63.32 65.25 63.31 C 65.04 65.16 64.74 66.99 64.57 68.84 C 63.57 68.78 62.57 68.73 61.58 68.67 C 61.10 66.89 60.59 65.11 60.10 63.33 Z" />
</g>
<g id="#7c7e84ff">
<path fill="#7c7e84" opacity="1.00" d=" M 66.85 64.66 C 69.03 64.86 71.15 65.46 72.62 67.19 C 70.35 67.13 66.21 68.40 66.85 64.66 Z" />
</g>
<g id="#808288ff">
<path fill="#808288" opacity="1.00" d=" M 87.45 64.73 C 91.24 65.18 95.46 64.71 98.77 66.97 C 95.22 67.58 91.54 67.90 87.99 67.12 C 87.86 66.52 87.58 65.33 87.45 64.73 Z" />
</g>
<g id="#e3773dff">
<path fill="#e3773d" opacity="1.00" d=" M 4.27 67.97 C 6.48 67.51 8.74 67.32 10.99 67.24 C 11.58 68.69 12.15 70.14 12.73 71.60 C 11.02 71.62 9.30 71.78 7.59 71.56 C 6.31 70.54 5.40 69.14 4.27 67.97 Z" />
</g>
<g id="#beb9beff">
<path fill="#beb9be" opacity="1.00" d=" M 10.99 67.24 C 22.64 67.21 34.28 67.28 45.93 67.21 C 45.94 67.85 45.95 69.14 45.96 69.79 C 37.89 70.04 29.80 69.10 21.74 69.93 C 21.59 71.12 21.44 72.32 21.29 73.51 C 19.37 73.57 17.44 73.64 15.52 73.70 C 15.33 72.19 15.15 70.68 14.95 69.16 C 14.14 70.38 13.32 71.61 12.51 72.83 C 9.22 73.05 5.89 72.70 3.04 70.92 C 3.10 70.24 3.22 68.90 3.28 68.23 L 4.27 67.97 C 5.40 69.14 6.31 70.54 7.59 71.56 C 9.30 71.78 11.02 71.62 12.73 71.60 C 12.15 70.14 11.58 68.69 10.99 67.24 Z" />
</g>
<g id="#a3b8c4ff">
<path fill="#a3b8c4" opacity="1.00" d=" M 59.35 79.86 C 59.69 77.67 58.41 73.51 62.08 74.42 C 65.19 76.53 62.73 80.59 59.35 79.86 Z" />
</g>
<g id="#6c6e76ff">
<path fill="#6c6e76" opacity="1.00" d=" M 67.28 76.37 C 73.47 76.39 79.65 76.35 85.84 76.34 C 85.86 76.94 85.89 78.14 85.90 78.74 C 79.69 78.70 73.47 78.69 67.25 78.65 C 67.26 78.08 67.27 76.94 67.28 76.37 Z" />
</g>
<g id="#e7abd9ff">
<path fill="#e7abd9" opacity="1.00" d=" M 4.03 78.04 C 5.79 77.74 7.55 77.29 9.34 77.40 C 10.57 79.05 11.49 80.89 12.53 82.66 C 10.77 83.01 9.01 83.39 7.25 83.76 C 8.56 84.15 9.87 84.53 11.19 84.89 C 11.36 85.35 11.70 86.27 11.87 86.74 C 9.83 86.64 7.72 86.83 5.74 86.20 C 4.35 83.72 4.36 80.79 4.03 78.04 Z" />
</g>
<g id="#c4c3c5ff">
<path fill="#c4c3c5" opacity="1.00" d=" M 14.92 78.94 C 23.91 78.93 32.91 78.75 41.89 79.30 C 41.61 80.04 41.34 80.78 41.06 81.52 C 38.95 81.22 36.66 80.30 34.61 81.33 C 32.82 82.02 32.07 83.94 30.99 85.38 C 25.47 85.89 19.88 85.80 14.42 84.72 C 14.58 82.79 14.77 80.86 14.92 78.94 Z" />
</g>
<g id="#b2ab9aff">
<path fill="#b2ab9a" opacity="1.00" d=" M 58.72 83.07 C 60.59 83.48 63.09 82.90 64.34 84.71 C 65.93 85.83 64.62 87.41 64.30 88.83 C 62.68 88.08 61.02 87.39 59.50 86.44 C 59.21 85.32 58.95 84.20 58.72 83.07 Z" />
</g>
<g id="#77777fff">
<path fill="#77777f" opacity="1.00" d=" M 67.25 85.36 C 75.83 85.38 84.40 85.40 92.98 85.38 C 94.58 85.06 95.35 86.56 96.27 87.55 C 86.60 87.33 76.93 87.79 67.26 87.64 C 67.26 87.07 67.25 85.93 67.25 85.36 Z" />
</g>
<g id="#bebdc0ff">
<path fill="#bebdc0" opacity="1.00" d=" M 14.30 92.86 C 21.23 92.30 28.19 92.94 35.13 92.55 C 35.39 93.21 35.66 93.86 35.92 94.52 C 29.13 95.27 22.08 96.11 15.36 94.67 C 15.10 94.22 14.57 93.31 14.30 92.86 Z" />
</g>
<g id="#c8ceceff">
<path fill="#c8cece" opacity="1.00" d=" M 59.98 91.95 C 63.44 90.01 64.34 95.16 65.32 97.45 C 63.35 97.51 61.38 97.54 59.42 97.58 C 59.51 95.70 59.38 93.76 59.98 91.95 Z" />
</g>
<g id="#74757cff">
<path fill="#74757c" opacity="1.00" d=" M 66.75 94.35 C 75.74 94.46 84.73 94.28 93.73 94.36 C 93.72 94.93 93.71 96.08 93.71 96.65 C 86.38 96.48 79.01 96.23 71.72 97.17 C 71.28 97.19 70.41 97.23 69.98 97.25 C 68.90 96.28 67.82 95.32 66.75 94.35 Z" />
</g>
<g id="#15171dff">
<path fill="#15171d" opacity="1.00" d=" M 65.32 97.45 C 66.87 97.39 68.43 97.32 69.98 97.25 C 70.41 97.23 71.28 97.19 71.72 97.17 C 82.76 98.89 93.96 97.71 105.07 98.26 C 107.67 98.36 109.92 99.76 112.20 100.84 C 117.15 103.13 122.74 102.09 128.00 102.09 L 128.00 102.86 C 108.00 102.57 88.00 102.94 68.00 102.73 C 63.58 102.62 59.18 102.94 54.78 103.24 L 54.01 103.19 C 42.63 102.47 31.21 102.76 19.82 103.13 C 15.37 103.09 10.93 102.71 6.53 102.09 L 7.45 101.95 C 22.56 100.97 37.76 101.92 52.90 101.52 C 54.24 101.61 55.32 100.80 56.31 100.01 C 57.35 99.21 58.39 98.40 59.42 97.58 C 61.38 97.54 63.35 97.51 65.32 97.45 Z" />
</g>
<g id="#5b6178ff">
<path fill="#5b6178" opacity="1.00" d=" M 0.00 102.87 C 2.18 102.67 4.36 102.41 6.53 102.09 C 10.93 102.71 15.37 103.09 19.82 103.13 C 19.37 105.06 18.90 107.00 18.52 108.95 C 18.07 108.95 17.18 108.94 16.73 108.94 C 11.15 108.94 5.58 108.99 0.00 108.94 L 0.00 102.87 Z" />
</g>
<g id="#82b165ff">
<path fill="#82b165" opacity="1.00" d=" M 19.82 103.13 C 31.21 102.76 42.63 102.47 54.01 103.19 C 54.66 105.12 55.34 107.04 55.93 108.99 C 56.11 112.42 56.11 115.85 55.88 119.28 C 55.66 117.49 55.36 115.72 55.03 113.95 C 54.76 112.61 54.47 111.27 54.17 109.93 C 53.74 108.00 53.28 106.08 52.84 104.15 C 42.28 103.94 31.72 103.90 21.16 104.13 C 20.73 106.00 20.28 107.87 19.86 109.75 C 19.55 111.14 19.25 112.53 18.97 113.94 C 18.65 115.69 18.35 117.46 18.14 119.23 C 18.12 118.80 18.07 117.92 18.05 117.48 C 17.96 114.63 18.08 111.77 18.52 108.95 C 18.90 107.00 19.37 105.06 19.82 103.13 Z" />
</g>
<g id="#5b6077ff">
<path fill="#5b6077" opacity="1.00" d=" M 54.78 103.24 C 59.18 102.94 63.58 102.62 68.00 102.73 C 88.00 102.94 108.00 102.57 128.00 102.86 L 128.00 108.05 C 104.48 107.96 80.96 108.27 57.45 107.91 C 56.57 106.35 55.70 104.78 54.78 103.24 Z" />
</g>
<g id="#63a645ff">
<path fill="#63a645" opacity="1.00" d=" M 21.16 104.13 C 31.72 103.90 42.28 103.94 52.84 104.15 C 53.28 106.08 53.74 108.00 54.17 109.93 C 47.60 110.65 40.98 109.82 34.40 110.39 C 29.55 110.81 24.67 110.43 19.86 109.75 C 20.28 107.87 20.73 106.00 21.16 104.13 Z" />
</g>
<g id="#4a4f62ff">
<path fill="#4a4f62" opacity="1.00" d=" M 54.01 103.19 L 54.78 103.24 C 55.70 104.78 56.57 106.35 57.45 107.91 C 80.96 108.27 104.48 107.96 128.00 108.05 L 128.00 110.97 C 104.20 111.12 80.39 110.68 56.60 111.21 C 56.43 110.65 56.10 109.55 55.93 108.99 C 55.34 107.04 54.66 105.12 54.01 103.19 Z" />
</g>
<g id="#21252fff">
<path fill="#21252f" opacity="1.00" d=" M 16.73 108.94 C 17.18 108.94 18.07 108.95 18.52 108.95 C 18.08 111.77 17.96 114.63 18.05 117.48 C 12.97 121.65 5.99 119.53 0.00 119.90 L 0.00 113.81 C 5.58 113.78 11.16 113.77 16.75 113.74 C 16.75 112.14 16.74 110.54 16.73 108.94 Z" />
</g>
<g id="#3f4354ff">
<path fill="#3f4354" opacity="1.00" d=" M 0.00 108.94 C 5.58 108.99 11.15 108.94 16.73 108.94 C 16.74 110.54 16.75 112.14 16.75 113.74 C 11.16 113.77 5.58 113.78 0.00 113.81 L 0.00 108.94 Z" />
</g>
<g id="#161721ff">
<path fill="#161721" opacity="1.00" d=" M 55.93 108.99 C 56.10 109.55 56.43 110.65 56.60 111.21 C 56.71 111.88 56.94 113.22 57.05 113.89 C 57.12 114.70 57.26 116.31 57.33 117.12 C 60.51 117.73 63.73 118.18 66.98 118.17 C 87.32 117.94 107.66 118.15 128.00 118.05 L 128.00 128.00 L 0.00 128.00 L 0.00 119.90 C 5.99 119.53 12.97 121.65 18.05 117.48 C 18.07 117.92 18.12 118.80 18.14 119.23 C 18.32 121.89 19.16 124.44 19.91 126.98 C 31.30 127.02 42.69 127.00 54.09 126.99 C 54.83 124.46 55.68 121.92 55.88 119.28 C 56.11 115.85 56.11 112.42 55.93 108.99 Z" />
</g>
<g id="#578a3fff">
<path fill="#578a3f" opacity="1.00" d=" M 19.86 109.75 C 24.67 110.43 29.55 110.81 34.40 110.39 C 40.98 109.82 47.60 110.65 54.17 109.93 C 54.47 111.27 54.76 112.61 55.03 113.95 C 43.01 114.15 30.99 114.26 18.97 113.94 C 19.25 112.53 19.55 111.14 19.86 109.75 Z" />
</g>
<g id="#3a3e4dff">
<path fill="#3a3e4d" opacity="1.00" d=" M 56.60 111.21 C 80.39 110.68 104.20 111.12 128.00 110.97 L 128.00 113.87 C 104.35 113.77 80.70 113.72 57.05 113.89 C 56.94 113.22 56.71 111.88 56.60 111.21 Z" />
</g>
<g id="#252834ff">
<path fill="#252834" opacity="1.00" d=" M 57.05 113.89 C 80.70 113.72 104.35 113.77 128.00 113.87 L 128.00 118.05 C 107.66 118.15 87.32 117.94 66.98 118.17 C 63.73 118.18 60.51 117.73 57.33 117.12 C 57.26 116.31 57.12 114.70 57.05 113.89 Z" />
</g>
<g id="#2b4b1cff">
<path fill="#2b4b1c" opacity="1.00" d=" M 20.01 116.97 C 27.70 119.91 35.99 119.08 44.04 119.04 C 47.46 118.92 50.73 117.86 54.00 116.96 C 53.82 119.88 53.44 122.79 52.82 125.66 C 42.28 125.70 31.73 125.70 21.18 125.66 C 20.56 122.79 20.18 119.89 20.01 116.97 Z" />
</g>
</svg>
